# Blender v2.83.10 OBJ File: 'LP_001.blend'
# www.blender.org
mtllib Painting 1.mtl
o Cube.056_Cube
v -5.445335 2.758860 2.336097
v -5.273444 2.758860 0.921428
v -5.445335 1.333786 2.336097
v -5.273444 1.333786 0.921428
v -5.467004 2.758860 2.333464
v -5.295113 2.758860 0.918795
v -5.467004 1.333786 2.333464
v -5.295113 1.333786 0.918795
v -5.445335 2.758860 2.336097
v -5.273444 2.758860 0.921428
v -5.445335 1.333786 2.336097
v -5.273444 1.333786 0.921428
v -5.454316 1.361795 2.305244
v -5.289551 1.361795 0.949233
v -5.454316 2.727780 2.305244
v -5.289551 2.727780 0.949233
vt 0.282637 0.666667
vt 0.000000 0.666667
vt 0.000000 0.333333
vt 0.282637 0.333333
vt 0.565275 0.666667
vt 0.282638 0.666667
vt 0.282637 0.333333
vt 0.565275 0.333333
vt 0.565275 0.666667
vt 0.565275 0.333333
vt 0.847908 0.333333
vt 0.847908 0.666667
vt 0.282683 0.333333
vt 0.282683 0.000000
vt 0.565325 0.000000
vt 0.565325 0.333333
vt 0.282683 0.333333
vt 0.000000 0.000000
vt 0.282683 0.000000
vt 0.836287 0.319512
vt 0.565325 0.319512
vt 0.565325 0.000000
vt 0.836287 0.000000
vt 1.000000 0.006911
vt 1.000000 0.326423
vt 0.836287 0.333333
vt 0.836287 0.000000
vt 0.491173 0.673218
vt 0.491173 0.992730
vt 0.327451 1.000000
vt 0.327451 0.666667
vt 0.163730 0.992730
vt 0.163730 0.673218
vt 0.327451 0.666667
vt 0.327451 1.000000
vt 0.163730 0.673577
vt 0.163730 0.993089
vt 0.000000 1.000000
vt 0.000000 0.666667
vn -0.1206 0.0000 0.9927
vn 0.1206 -0.0000 -0.9927
vn -0.0000 -1.0000 0.0000
vn 0.0000 1.0000 0.0000
vn -0.9927 -0.0000 -0.1206
vn 0.9927 0.0000 0.1206
vn 0.9049 0.4112 0.1099
vn 0.9602 -0.0000 -0.2795
vn 0.8653 -0.0000 0.5013
vn 0.9196 -0.3766 0.1117
usemtl Material.006
s off
f 1/1/1 5/2/1 7/3/1 3/4/1
f 6/5/2 2/6/2 4/7/2 8/8/2
f 4/9/3 3/10/3 7/11/3 8/12/3
f 6/13/4 5/14/4 1/15/4 2/16/4
f 8/17/5 7/3/5 5/18/5 6/19/5
f 16/20/6 15/21/6 13/22/6 14/23/6
f 14/24/7 13/25/7 11/26/7 12/27/7
f 13/28/8 15/29/8 9/30/8 11/31/8
f 16/32/9 14/33/9 12/34/9 10/35/9
f 15/36/10 16/37/10 10/38/10 9/39/10
