{
    "asset" : {
        "generator" : "Khronos glTF Blender I/O v1.2.75",
        "version" : "2.0"
    },
    "scene" : 0,
    "scenes" : [
        {
            "name" : "Scene",
            "nodes" : [
                0
            ]
        }
    ],
    "nodes" : [
        {
            "mesh" : 0,
            "name" : "Cylinder.001",
            "rotation" : [
                0.29276928305625916,
                -0.8262534141540527,
                0.46674108505249023,
                0.11723576486110687
            ],
            "translation" : [
                -15.014835357666016,
                0.02703709900379181,
                12.388850212097168
            ]
        }
    ],
    "materials" : [
        {
            "doubleSided" : true,
            "emissiveFactor" : [
                0,
                0,
                0
            ],
            "name" : "Material.046",
            "pbrMetallicRoughness" : {
                "baseColorFactor" : [
                    0.049543000757694244,
                    0.021717999130487442,
                    0.002991999965161085,
                    1
                ],
                "metallicFactor" : 0,
                "roughnessFactor" : 0.4583333432674408
            }
        },
        {
            "doubleSided" : true,
            "emissiveFactor" : [
                0,
                0,
                0
            ],
            "name" : "Material.048",
            "pbrMetallicRoughness" : {
                "baseColorFactor" : [
                    0.12784630060195923,
                    0,
                    0.1282377988100052,
                    1
                ],
                "metallicFactor" : 0.668181836605072,
                "roughnessFactor" : 0.2545454502105713
            }
        }
    ],
    "meshes" : [
        {
            "name" : "Cylinder.001",
            "primitives" : [
                {
                    "attributes" : {
                        "POSITION" : 0,
                        "NORMAL" : 1,
                        "TEXCOORD_0" : 2
                    },
                    "indices" : 3,
                    "material" : 0
                },
                {
                    "attributes" : {
                        "POSITION" : 4,
                        "NORMAL" : 5,
                        "TEXCOORD_0" : 6
                    },
                    "indices" : 7,
                    "material" : 1
                }
            ]
        }
    ],
    "accessors" : [
        {
            "bufferView" : 0,
            "componentType" : 5126,
            "count" : 17559,
            "max" : [
                1.2238500118255615,
                0.0699319988489151,
                -0.9270489811897278
            ],
            "min" : [
                -1.1214359998703003,
                -0.06288400292396545,
                -1.3945720195770264
            ],
            "type" : "VEC3"
        },
        {
            "bufferView" : 1,
            "componentType" : 5126,
            "count" : 17559,
            "type" : "VEC3"
        },
        {
            "bufferView" : 2,
            "componentType" : 5126,
            "count" : 17559,
            "type" : "VEC2"
        },
        {
            "bufferView" : 3,
            "componentType" : 5123,
            "count" : 38400,
            "type" : "SCALAR"
        },
        {
            "bufferView" : 4,
            "componentType" : 5126,
            "count" : 6912,
            "max" : [
                0.7761840224266052,
                0.3702160120010376,
                -0.7941150069236755
            ],
            "min" : [
                -1.2801560163497925,
                -0.3555999994277954,
                -1.247789978981018
            ],
            "type" : "VEC3"
        },
        {
            "bufferView" : 5,
            "componentType" : 5126,
            "count" : 6912,
            "type" : "VEC3"
        },
        {
            "bufferView" : 6,
            "componentType" : 5126,
            "count" : 6912,
            "type" : "VEC2"
        },
        {
            "bufferView" : 7,
            "componentType" : 5123,
            "count" : 10368,
            "type" : "SCALAR"
        }
    ],
    "bufferViews" : [
        {
            "buffer" : 0,
            "byteLength" : 210708,
            "byteOffset" : 0
        },
        {
            "buffer" : 0,
            "byteLength" : 210708,
            "byteOffset" : 210708
        },
        {
            "buffer" : 0,
            "byteLength" : 140472,
            "byteOffset" : 421416
        },
        {
            "buffer" : 0,
            "byteLength" : 76800,
            "byteOffset" : 561888
        },
        {
            "buffer" : 0,
            "byteLength" : 82944,
            "byteOffset" : 638688
        },
        {
            "buffer" : 0,
            "byteLength" : 82944,
            "byteOffset" : 721632
        },
        {
            "buffer" : 0,
            "byteLength" : 55296,
            "byteOffset" : 804576
        },
        {
            "buffer" : 0,
            "byteLength" : 20736,
            "byteOffset" : 859872
        }
    ],
    "buffers" : [
        {
            "byteLength" : 880608,
            "uri" : "data:application/octet-stream;base64,"
        }
    ]
}
