{"asset":{"version":"2.0","generator":"babylon.js glTF exporter for Maya 2018 v20201214.2"},"scene":0,"scenes":[{"nodes":[0,1,2,3,4,5,6,7,8,9,10,11,12,13,14,15,16,17,18]}],"nodes":[{"mesh":0,"name":"Milkmaid:arms_0"},{"mesh":1,"name":"Milkmaid:headtorso_0"},{"mesh":2,"name":"Milkmaid:collar_0"},{"mesh":3,"name":"Milkmaid:sleeves_0"},{"mesh":4,"name":"Milkmaid:skirt_0"},{"mesh":5,"name":"Milkmaid:Head001"},{"mesh":6,"name":"Milkmaid:hood_new"},{"mesh":7,"name":"melk_kan_:Melk_kan_low"},{"mesh":8,"name":"tablecloth:mesh_0"},{"mesh":9,"name":"pCube1"},{"mesh":10,"name":"pCube2"},{"mesh":11,"name":"pCube3"},{"mesh":12,"name":"pCube4"},{"mesh":13,"name":"pCube5"},{"mesh":14,"name":"pCube6"},{"mesh":15,"name":"pCube7"},{"mesh":16,"name":"pCube8"},{"mesh":17,"name":"pCube9"},{"mesh":18,"name":"pCube10"}],"meshes":[{"primitives":[{"attributes":{"POSITION":1,"TANGENT":2,"NORMAL":3,"TEXCOORD_0":4},"indices":0,"material":0}],"name":"Milkmaid:arms_0"},{"primitives":[{"attributes":{"POSITION":6,"TANGENT":7,"NORMAL":8,"TEXCOORD_0":9},"indices":5,"material":0}],"name":"Milkmaid:headtorso_0"},{"primitives":[{"attributes":{"POSITION":11,"TANGENT":12,"NORMAL":13,"TEXCOORD_0":14},"indices":10,"material":0}],"name":"Milkmaid:collar_0"},{"primitives":[{"attributes":{"POSITION":16,"TANGENT":17,"NORMAL":18,"TEXCOORD_0":19},"indices":15,"material":0}],"name":"Milkmaid:sleeves_0"},{"primitives":[{"attributes":{"POSITION":21,"TANGENT":22,"NORMAL":23,"TEXCOORD_0":24},"indices":20,"material":0}],"name":"Milkmaid:skirt_0"},{"primitives":[{"attributes":{"POSITION":26,"TANGENT":27,"NORMAL":28,"TEXCOORD_0":29},"indices":25,"material":0}],"name":"Milkmaid:Head001"},{"primitives":[{"attributes":{"POSITION":31,"TANGENT":32,"NORMAL":33,"TEXCOORD_0":34},"indices":30,"material":0}],"name":"Milkmaid:hood_new"},{"primitives":[{"attributes":{"POSITION":36,"TANGENT":37,"NORMAL":38,"TEXCOORD_0":39},"indices":35,"material":1}],"name":"melk_kan_:Melk_kan_low"},{"primitives":[{"attributes":{"POSITION":41,"TANGENT":42,"NORMAL":43,"TEXCOORD_0":44},"indices":40,"material":2}],"name":"tablecloth:mesh_0"},{"primitives":[{"attributes":{"POSITION":46,"TANGENT":47,"NORMAL":48,"TEXCOORD_0":49},"indices":45,"material":3}],"name":"pCube1"},{"primitives":[{"attributes":{"POSITION":51,"TANGENT":52,"NORMAL":53,"TEXCOORD_0":54},"indices":50,"material":3}],"name":"pCube2"},{"primitives":[{"attributes":{"POSITION":56,"TANGENT":57,"NORMAL":58,"TEXCOORD_0":59},"indices":55,"material":3}],"name":"pCube3"},{"primitives":[{"attributes":{"POSITION":61,"TANGENT":62,"NORMAL":63,"TEXCOORD_0":64},"indices":60,"material":3}],"name":"pCube4"},{"primitives":[{"attributes":{"POSITION":66,"TANGENT":67,"NORMAL":68,"TEXCOORD_0":69},"indices":65,"material":3}],"name":"pCube5"},{"primitives":[{"attributes":{"POSITION":71,"TANGENT":72,"NORMAL":73,"TEXCOORD_0":74},"indices":70,"material":3}],"name":"pCube6"},{"primitives":[{"attributes":{"POSITION":76,"TANGENT":77,"NORMAL":78,"TEXCOORD_0":79},"indices":75,"material":3}],"name":"pCube7"},{"primitives":[{"attributes":{"POSITION":81,"TANGENT":82,"NORMAL":83,"TEXCOORD_0":84},"indices":80,"material":3}],"name":"pCube8"},{"primitives":[{"attributes":{"POSITION":86,"TANGENT":87,"NORMAL":88,"TEXCOORD_0":89},"indices":85,"material":3}],"name":"pCube9"},{"primitives":[{"attributes":{"POSITION":91,"TANGENT":92,"NORMAL":93,"TEXCOORD_0":94},"indices":90,"material":3}],"name":"pCube10"}],"accessors":[{"bufferView":0,"componentType":5123,"count":15936,"type":"SCALAR","name":"accessorIndices"},{"bufferView":1,"componentType":5126,"count":15936,"max":[0.006021012,0.0152533818,0.00257],"min":[0.0002740115,0.0122283828,-0.00275099976],"type":"VEC3","name":"accessorPositions"},{"bufferView":2,"componentType":5126,"count":15936,"type":"VEC4","name":"accessorTangents"},{"bufferView":1,"byteOffset":191232,"componentType":5126,"count":15936,"type":"VEC3","name":"accessorNormals"},{"bufferView":3,"componentType":5126,"count":15936,"type":"VEC2","name":"accessorUVs"},{"bufferView":0,"byteOffset":31872,"componentType":5123,"count":11868,"type":"SCALAR","name":"accessorIndices"},{"bufferView":1,"byteOffset":382464,"componentType":5126,"count":11868,"max":[0.007725011,0.0175903812,0.002554],"min":[0.0007210114,9.238243E-05,-0.005396],"type":"VEC3","name":"accessorPositions"},{"bufferView":2,"byteOffset":254976,"componentType":5126,"count":11868,"type":"VEC4","name":"accessorTangents"},{"bufferView":1,"byteOffset":524880,"componentType":5126,"count":11868,"type":"VEC3","name":"accessorNormals"},{"bufferView":3,"byteOffset":127488,"componentType":5126,"count":11868,"type":"VEC2","name":"accessorUVs"},{"bufferView":0,"byteOffset":55608,"componentType":5123,"count":4458,"type":"SCALAR","name":"accessorIndices"},{"bufferView":1,"byteOffset":667296,"componentType":5126,"count":4458,"max":[0.00543701136,0.018294381,0.001202],"min":[0.00341701182,0.016416382,-0.00136],"type":"VEC3","name":"accessorPositions"},{"bufferView":2,"byteOffset":444864,"componentType":5126,"count":4458,"type":"VEC4","name":"accessorTangents"},{"bufferView":1,"byteOffset":720792,"componentType":5126,"count":4458,"type":"VEC3","name":"accessorNormals"},{"bufferView":3,"byteOffset":222432,"componentType":5126,"count":4458,"type":"VEC2","name":"accessorUVs"},{"bufferView":0,"byteOffset":64524,"componentType":5123,"count":1152,"type":"SCALAR","name":"accessorIndices"},{"bufferView":1,"byteOffset":774288,"componentType":5126,"count":1152,"max":[0.00631401176,0.0160883814,0.00214],"min":[0.0012830114,0.0138703818,-0.003044],"type":"VEC3","name":"accessorPositions"},{"bufferView":2,"byteOffset":516192,"componentType":5126,"count":1152,"type":"VEC4","name":"accessorTangents"},{"bufferView":1,"byteOffset":788112,"componentType":5126,"count":1152,"type":"VEC3","name":"accessorNormals"},{"bufferView":3,"byteOffset":258096,"componentType":5126,"count":1152,"type":"VEC2","name":"accessorUVs"},{"bufferView":0,"byteOffset":66828,"componentType":5123,"count":4662,"type":"SCALAR","name":"accessorIndices"},{"bufferView":1,"byteOffset":801936,"componentType":5126,"count":4662,"max":[0.006962012,0.014328382,0.002217],"min":[0.0015870115,0.00767338276,-0.00373899983],"type":"VEC3","name":"accessorPositions"},{"bufferView":2,"byteOffset":534624,"componentType":5126,"count":4662,"type":"VEC4","name":"accessorTangents"},{"bufferView":1,"byteOffset":857880,"componentType":5126,"count":4662,"type":"VEC3","name":"accessorNormals"},{"bufferView":3,"byteOffset":267312,"componentType":5126,"count":4662,"type":"VEC2","name":"accessorUVs"},{"bufferView":0,"byteOffset":76152,"componentType":5123,"count":14148,"type":"SCALAR","name":"accessorIndices"},{"bufferView":1,"byteOffset":913824,"componentType":5126,"count":14148,"max":[0.00562901143,0.0196183827,0.001453],"min":[0.00378501136,0.017028382,-0.000983],"type":"VEC3","name":"accessorPositions"},{"bufferView":2,"byteOffset":609216,"componentType":5126,"count":14148,"type":"VEC4","name":"accessorTangents"},{"bufferView":1,"byteOffset":1083600,"componentType":5126,"count":14148,"type":"VEC3","name":"accessorNormals"},{"bufferView":3,"byteOffset":304608,"componentType":5126,"count":14148,"type":"VEC2","name":"accessorUVs"},{"bufferView":0,"byteOffset":104448,"componentType":5123,"count":8160,"type":"SCALAR","name":"accessorIndices"},{"bufferView":1,"byteOffset":1253376,"componentType":5126,"count":8160,"max":[0.006160011,0.01994338,0.001498],"min":[0.00295001175,0.01659638,-0.001829],"type":"VEC3","name":"accessorPositions"},{"bufferView":2,"byteOffset":835584,"componentType":5126,"count":8160,"type":"VEC4","name":"accessorTangents"},{"bufferView":1,"byteOffset":1351296,"componentType":5126,"count":8160,"type":"VEC3","name":"accessorNormals"},{"bufferView":3,"byteOffset":417792,"componentType":5126,"count":8160,"type":"VEC2","name":"accessorUVs"},{"bufferView":0,"byteOffset":120768,"componentType":5123,"count":4152,"type":"SCALAR","name":"accessorIndices"},{"bufferView":1,"byteOffset":1449216,"componentType":5126,"count":4152,"max":[0.00224944227,0.0145053715,0.00271551032],"min":[0.000307101232,0.0117652174,-0.0002913328],"type":"VEC3","name":"accessorPositions"},{"bufferView":2,"byteOffset":966144,"componentType":5126,"count":4152,"type":"VEC4","name":"accessorTangents"},{"bufferView":1,"byteOffset":1499040,"componentType":5126,"count":4152,"type":"VEC3","name":"accessorNormals"},{"bufferView":3,"byteOffset":483072,"componentType":5126,"count":4152,"type":"VEC2","name":"accessorUVs"},{"bufferView":0,"byteOffset":129072,"componentType":5123,"count":9600,"type":"SCALAR","name":"accessorIndices"},{"bufferView":1,"byteOffset":1548864,"componentType":5126,"count":9600,"max":[0.0088090105,0.008239236,0.016452],"min":[-0.00323098828,-4.37644121E-05,-0.002843],"type":"VEC3","name":"accessorPositions"},{"bufferView":2,"byteOffset":1032576,"componentType":5126,"count":9600,"type":"VEC4","name":"accessorTangents"},{"bufferView":1,"byteOffset":1664064,"componentType":5126,"count":9600,"type":"VEC3","name":"accessorNormals"},{"bufferView":3,"byteOffset":516288,"componentType":5126,"count":9600,"type":"VEC2","name":"accessorUVs"},{"bufferView":0,"byteOffset":148272,"componentType":5123,"count":144,"type":"SCALAR","name":"accessorIndices"},{"bufferView":1,"byteOffset":1779264,"componentType":5126,"count":144,"max":[0.0282266643,0.006996102,0.00342766219],"min":[0.0213713385,-0.0001610282,-0.00342766219],"type":"VEC3","name":"accessorPositions"},{"bufferView":2,"byteOffset":1186176,"componentType":5126,"count":144,"type":"VEC4","name":"accessorTangents"},{"bufferView":1,"byteOffset":1780992,"componentType":5126,"count":144,"type":"VEC3","name":"accessorNormals"},{"bufferView":3,"byteOffset":593088,"componentType":5126,"count":144,"type":"VEC2","name":"accessorUVs"},{"bufferView":0,"byteOffset":148560,"componentType":5123,"count":144,"type":"SCALAR","name":"accessorIndices"},{"bufferView":1,"byteOffset":1782720,"componentType":5126,"count":144,"max":[0.0291684,0.0069961017,0.0118391151],"min":[0.0204296038,-0.0001610279,0.0031003207],"type":"VEC3","name":"accessorPositions"},{"bufferView":2,"byteOffset":1188480,"componentType":5126,"count":144,"type":"VEC4","name":"accessorTangents"},{"bufferView":1,"byteOffset":1784448,"componentType":5126,"count":144,"type":"VEC3","name":"accessorNormals"},{"bufferView":3,"byteOffset":594240,"componentType":5126,"count":144,"type":"VEC2","name":"accessorUVs"},{"bufferView":0,"byteOffset":148848,"componentType":5123,"count":144,"type":"SCALAR","name":"accessorIndices"},{"bufferView":1,"byteOffset":1786176,"componentType":5126,"count":144,"max":[0.0287600458,0.0138371391,0.0114307618],"min":[0.0208379589,0.00668000849,0.00350867561],"type":"VEC3","name":"accessorPositions"},{"bufferView":2,"byteOffset":1190784,"componentType":5126,"count":144,"type":"VEC4","name":"accessorTangents"},{"bufferView":1,"byteOffset":1787904,"componentType":5126,"count":144,"type":"VEC3","name":"accessorNormals"},{"bufferView":3,"byteOffset":595392,"componentType":5126,"count":144,"type":"VEC2","name":"accessorUVs"},{"bufferView":0,"byteOffset":149136,"componentType":5123,"count":144,"type":"SCALAR","name":"accessorIndices"},{"bufferView":1,"byteOffset":1789632,"componentType":5126,"count":144,"max":[-0.009460504,0.0069961017,-0.009086177],"min":[-0.01631583,-0.0001610279,-0.0159415],"type":"VEC3","name":"accessorPositions"},{"bufferView":2,"byteOffset":1193088,"componentType":5126,"count":144,"type":"VEC4","name":"accessorTangents"},{"bufferView":1,"byteOffset":1791360,"componentType":5126,"count":144,"type":"VEC3","name":"accessorNormals"},{"bufferView":3,"byteOffset":596544,"componentType":5126,"count":144,"type":"VEC2","name":"accessorUVs"},{"bufferView":0,"byteOffset":149424,"componentType":5123,"count":144,"type":"SCALAR","name":"accessorIndices"},{"bufferView":1,"byteOffset":1793088,"componentType":5126,"count":144,"max":[-0.008824149,0.0069961017,-0.000640105],"min":[-0.016952185,-0.0001610279,-0.00876814],"type":"VEC3","name":"accessorPositions"},{"bufferView":2,"byteOffset":1195392,"componentType":5126,"count":144,"type":"VEC4","name":"accessorTangents"},{"bufferView":1,"byteOffset":1794816,"componentType":5126,"count":144,"type":"VEC3","name":"accessorNormals"},{"bufferView":3,"byteOffset":597696,"componentType":5126,"count":144,"type":"VEC2","name":"accessorUVs"},{"bufferView":0,"byteOffset":149712,"componentType":5123,"count":144,"type":"SCALAR","name":"accessorIndices"},{"bufferView":1,"byteOffset":1796544,"componentType":5126,"count":144,"max":[-0.01689493,0.0069961017,-0.00852560252],"min":[-0.0248714015,-0.0001610279,-0.0165020749],"type":"VEC3","name":"accessorPositions"},{"bufferView":2,"byteOffset":1197696,"componentType":5126,"count":144,"type":"VEC4","name":"accessorTangents"},{"bufferView":1,"byteOffset":1798272,"componentType":5126,"count":144,"type":"VEC3","name":"accessorNormals"},{"bufferView":3,"byteOffset":598848,"componentType":5126,"count":144,"type":"VEC2","name":"accessorUVs"},{"bufferView":0,"byteOffset":150000,"componentType":5123,"count":144,"type":"SCALAR","name":"accessorIndices"},{"bufferView":1,"byteOffset":1800000,"componentType":5126,"count":144,"max":[0.0120660616,0.0069961017,-0.0281536859],"min":[0.00390009815,-0.0001610279,-0.036319647],"type":"VEC3","name":"accessorPositions"},{"bufferView":2,"byteOffset":1200000,"componentType":5126,"count":144,"type":"VEC4","name":"accessorTangents"},{"bufferView":1,"byteOffset":1801728,"componentType":5126,"count":144,"type":"VEC3","name":"accessorNormals"},{"bufferView":3,"byteOffset":600000,"componentType":5126,"count":144,"type":"VEC2","name":"accessorUVs"},{"bufferView":0,"byteOffset":150288,"componentType":5123,"count":144,"type":"SCALAR","name":"accessorIndices"},{"bufferView":1,"byteOffset":1803456,"componentType":5126,"count":144,"max":[0.0114116,0.0139044719,-0.0288081467],"min":[0.00455456,0.00674734265,-0.0356651843],"type":"VEC3","name":"accessorPositions"},{"bufferView":2,"byteOffset":1202304,"componentType":5126,"count":144,"type":"VEC4","name":"accessorTangents"},{"bufferView":1,"byteOffset":1805184,"componentType":5126,"count":144,"type":"VEC3","name":"accessorNormals"},{"bufferView":3,"byteOffset":601152,"componentType":5126,"count":144,"type":"VEC2","name":"accessorUVs"},{"bufferView":0,"byteOffset":150576,"componentType":5123,"count":144,"type":"SCALAR","name":"accessorIndices"},{"bufferView":1,"byteOffset":1806912,"componentType":5126,"count":144,"max":[0.0119558237,0.0207840391,-0.0282639228],"min":[0.004010337,0.0136269117,-0.03620941],"type":"VEC3","name":"accessorPositions"},{"bufferView":2,"byteOffset":1204608,"componentType":5126,"count":144,"type":"VEC4","name":"accessorTangents"},{"bufferView":1,"byteOffset":1808640,"componentType":5126,"count":144,"type":"VEC3","name":"accessorNormals"},{"bufferView":3,"byteOffset":602304,"componentType":5126,"count":144,"type":"VEC2","name":"accessorUVs"},{"bufferView":0,"byteOffset":150864,"componentType":5123,"count":144,"type":"SCALAR","name":"accessorIndices"},{"bufferView":1,"byteOffset":1810368,"componentType":5126,"count":144,"max":[0.027744757,0.0069961017,0.0206317138],"min":[0.0204862487,-0.0001610279,0.0133732092],"type":"VEC3","name":"accessorPositions"},{"bufferView":2,"byteOffset":1206912,"componentType":5126,"count":144,"type":"VEC4","name":"accessorTangents"},{"bufferView":1,"byteOffset":1812096,"componentType":5126,"count":144,"type":"VEC3","name":"accessorNormals"},{"bufferView":3,"byteOffset":603456,"componentType":5126,"count":144,"type":"VEC2","name":"accessorUVs"}],"bufferViews":[{"buffer":0,"byteLength":151152,"name":"bufferViewScalar"},{"buffer":0,"byteOffset":151152,"byteLength":1813824,"byteStride":12,"name":"bufferViewFloatVec3"},{"buffer":0,"byteOffset":1964976,"byteLength":1209216,"byteStride":16,"name":"bufferViewFloatVec4"},{"buffer":0,"byteOffset":3174192,"byteLength":604608,"byteStride":8,"name":"bufferViewFloatVec2"}],"buffers":[{"uri":"export_museumprops.babylon.bin","byteLength":3778800}],"materials":[{"pbrMetallicRoughness":{"baseColorTexture":{"index":0},"metallicFactor":0.0,"roughnessFactor":0.450053632},"name":"material_milkmaid"},{"pbrMetallicRoughness":{"baseColorTexture":{"index":1},"metallicFactor":0.0,"roughnessFactor":0.450053632},"name":"material_milkcan"},{"pbrMetallicRoughness":{"baseColorTexture":{"index":2},"metallicFactor":0.0,"roughnessFactor":0.450053632},"name":"material_tablecloth"},{"pbrMetallicRoughness":{"baseColorTexture":{"index":3},"metallicFactor":0.0,"roughnessFactor":0.450053632},"name":"material_box"}],"textures":[{"sampler":0,"source":0,"name":"melkmeisje_diffuse2.png"},{"sampler":0,"source":1,"name":"melk-kan_low_Melk_kan_BaseColor.png"},{"sampler":0,"source":2,"name":"tablecloth_diffuse.png"},{"sampler":0,"source":3,"name":"box_diffuse.png"}],"images":[{"uri":"melkmeisje_diffuse2.png"},{"uri":"melk-kan_low_Melk_kan_BaseColor.png"},{"uri":"tablecloth_diffuse.png"},{"uri":"box_diffuse.png"}],"samplers":[{"magFilter":9729,"minFilter":9987}]}